<svg width="160" height="160" viewBox="0 0 160 160" fill="none" xmlns="http://www.w3.org/2000/svg">
<path d="M2.82843 80L80 2.82843L157.172 80L80 157.172L2.82843 80Z" fill="white" stroke="#377ED9" stroke-width="4"/>
<path d="M63.6304 93.6216H67.6531V77.6649H66.8745C65.9662 77.6649 65.2525 76.9514 65.2525 76.0433V69.6217C65.2525 68.7136 65.9662 68 66.8745 68H78.0345C78.9429 68 79.6566 68.7136 79.6566 69.6217V75.9784C79.6566 76.8866 78.9429 77.6 78.0345 77.6H77.2559V93.6216H83.6794V77.6649H82.9008C81.9924 77.6649 81.2787 76.9514 81.2787 76.0433V69.6217C81.2787 68.7136 81.9924 68 82.9008 68H94.1256C95.034 68 95.7477 68.7136 95.7477 69.6217V72.2811H95.8775L95.7477 73.1244V73.5784V75.9784C95.7477 76.8866 95.034 77.6 94.1256 77.6H93.2822V91.546L93.347 93.6216H97.24V66.3784H63.6304V93.6216Z" fill="white"/>
<path d="M63.3706 95.1785L58.7639 102.378H102.301L97.694 95.1785H63.3706ZM68.2369 100.238C67.7827 100.627 67.1988 100.822 66.6148 100.822C66.0309 100.822 65.4469 100.627 64.9279 100.368C63.8897 99.8487 63.4355 100.238 63.4355 100.238C63.1111 100.497 62.6569 100.497 62.3325 100.173C62.0081 99.8487 62.0081 99.3947 62.3325 99.0704C62.7867 98.6163 63.9546 98.0974 65.6416 98.9406C66.6797 99.4595 67.1339 99.0704 67.1339 99.0704C67.4583 98.8109 67.9774 98.8109 68.2369 99.1352C68.5613 99.4595 68.5613 99.9136 68.2369 100.238ZM75.439 97.8379C74.9848 98.2271 74.4008 98.4217 73.8169 98.4217C73.2329 98.4217 72.649 98.2271 72.1299 97.9677C71.0918 97.4487 70.6376 97.8379 70.6376 97.8379C70.3132 98.0974 69.859 98.0974 69.5346 97.7731C69.2101 97.4487 69.2101 96.9947 69.5346 96.6704C69.9888 96.2163 71.1567 95.6974 72.8437 96.5406C73.8818 97.0595 74.336 96.6704 74.336 96.6704C74.6604 96.4109 75.1794 96.4109 75.439 96.7352C75.7634 97.0595 75.7634 97.5136 75.439 97.8379ZM83.4845 100.238C83.0304 100.627 82.4464 100.822 81.8625 100.822C81.2785 100.822 80.6946 100.627 80.1755 100.368C79.1373 99.8487 78.6832 100.238 78.6832 100.238C78.3588 100.497 77.9046 100.497 77.5802 100.173C77.2557 99.8487 77.2557 99.3947 77.5802 99.0704C78.0343 98.6163 79.2022 98.0974 80.8892 98.9406C81.9274 99.4595 82.3816 99.0704 82.3816 99.0704C82.7059 98.8109 83.1601 98.8109 83.4845 99.1352C83.809 99.4595 83.809 99.9136 83.4845 100.238ZM90.6866 97.8379C90.2325 98.2271 89.6485 98.4217 89.0645 98.4217C88.4806 98.4217 87.8966 98.2271 87.3776 97.9677C86.3394 97.4487 85.8853 97.8379 85.8853 97.8379C85.5608 98.0974 85.1066 98.0974 84.7822 97.7731C84.4578 97.4487 84.4578 96.9947 84.7822 96.6704C85.2364 96.2163 86.4043 95.6974 88.0913 96.5406C89.1294 97.0595 89.5836 96.6704 89.5836 96.6704C89.908 96.4109 90.3622 96.4109 90.6866 96.7352C91.011 97.0595 91.011 97.5136 90.6866 97.8379ZM98.6673 99.1352C98.9917 99.4595 98.9917 99.9136 98.6673 100.238C98.2132 100.627 97.6292 100.822 97.0453 100.822C96.4613 100.822 95.8773 100.627 95.3583 100.368C94.3201 99.8487 93.8659 100.238 93.8659 100.238C93.5415 100.497 93.0873 100.497 92.7629 100.173C92.4385 99.8487 92.4385 99.3947 92.7629 99.0704C93.2171 98.6163 94.385 98.0974 96.072 98.9406C97.1101 99.4595 97.5643 99.0704 97.5643 99.0704C97.8887 98.8109 98.3429 98.8109 98.6673 99.1352Z" fill="#A9E5FF"/>
<path d="M94.1255 69.6216H82.9006V71.1783V71.2432H94.1255V69.6216Z" fill="#A9E5FF"/>
<path d="M94.1256 75.9784V72.8H82.9656V75.9784H83.7442V75.2C83.7442 74.8109 84.0686 74.4217 84.5228 74.4217C84.9121 74.4217 85.3014 74.746 85.3663 75.2V93.6217H91.7897V75.2C91.7897 74.8109 92.1141 74.4217 92.5683 74.4217C92.9577 74.4217 93.347 74.746 93.347 75.2V75.9784H94.1256ZM88.4807 92C88.4807 92.3892 88.1563 92.7784 87.7021 92.7784C87.2479 92.7784 86.9235 92.4541 86.9235 92V89.6C86.9235 89.2109 87.2479 88.8217 87.7021 88.8217C88.0914 88.8217 88.4807 89.146 88.4807 89.6V92ZM88.4807 82.4C88.4807 82.7892 88.1563 83.1784 87.7021 83.1784C87.2479 83.1784 86.9235 82.8541 86.9235 82.4V80.7784C86.9235 80.3892 87.2479 80 87.7021 80C88.0914 80 88.4807 80.3244 88.4807 80.7784V82.4ZM90.1028 87.2C90.1028 87.5892 89.7784 87.9784 89.3242 87.9784C88.87 87.9784 88.4807 87.6541 88.5456 87.2V85.5784C88.5456 85.1892 88.9349 84.8 89.3242 84.8C89.7135 84.8 90.1028 85.1244 90.1028 85.5784V87.2ZM90.8814 76.8217V77.6C90.8814 77.9892 90.557 78.3784 90.1028 78.3784C89.6486 78.3784 89.3242 78.0541 89.3242 77.6V76.8217C89.3242 76.4325 89.7135 76.0433 90.1028 76.0433C90.4921 76.0433 90.8814 76.3676 90.8814 76.8217Z" fill="#A9E5FF"/>
<path d="M78.0991 69.6216H66.8743V71.1783V71.2432H78.0991V69.6216Z" fill="#A9E5FF"/>
<path d="M78.0991 75.9784V72.8H66.8743V75.9784H67.7178V75.2C67.7178 74.8109 68.0422 74.4217 68.4964 74.4217C68.8857 74.4217 69.275 74.746 69.275 75.2V93.6217H75.6984V75.2C75.6984 74.8109 76.0228 74.4217 76.477 74.4217C76.9312 74.4217 77.3205 74.746 77.3205 75.2V75.9784H78.0991ZM72.4543 89.6V92C72.4543 92.3892 72.0649 92.7784 71.6757 92.7784C71.2863 92.7784 70.897 92.4541 70.897 92V89.6C70.897 89.2109 71.2215 88.8217 71.6757 88.8217C72.1298 88.8217 72.5191 89.146 72.4543 89.6ZM72.4543 80.7784V82.4C72.4543 82.7892 72.0649 83.1784 71.6757 83.1784C71.2863 83.1784 70.897 82.8541 70.897 82.4V80.7784C70.897 80.3892 71.2215 80 71.6757 80C72.1298 80 72.5191 80.3892 72.4543 80.7784ZM74.0763 87.2C74.0763 87.5892 73.7519 87.9784 73.2977 87.9784C72.9084 87.9784 72.5191 87.6541 72.5191 87.2V85.5784C72.5191 85.1892 72.8436 84.8 73.2977 84.8C73.7519 84.8 74.0763 85.1892 74.0763 85.5784V87.2ZM74.8549 76.7568V77.5352C74.8549 77.9244 74.5305 78.3136 74.0763 78.3136C73.687 78.3136 73.2977 77.9892 73.2977 77.5352V76.7568C73.2977 76.3676 73.6222 75.9784 74.0763 75.9784C74.5305 75.9784 74.9199 76.3676 74.8549 76.7568Z" fill="#A9E5FF"/>
<path d="M79.6566 57.6216H76.4773V60.0216H79.6566V57.6216Z" fill="white"/>
<path d="M99.7055 61.5784H61.2944V64.7567H99.7055V61.5784Z" fill="white"/>
<path d="M74.8553 57.6216H71.676V60.0216H74.8553V57.6216Z" fill="white"/>
<path d="M65.2525 57.6216H62.0732V60.0216H65.2525V57.6216Z" fill="white"/>
<path d="M70.1184 57.6216H66.8743V60.0216H70.1184V57.6216Z" fill="white"/>
<path d="M89.2594 57.6216H86.0801V60.0216H89.2594V57.6216Z" fill="white"/>
<path d="M94.1255 57.6216H90.8813V60.0216H94.1255V57.6216Z" fill="white"/>
<path d="M84.4579 57.6216H81.2786V60.0216H84.4579V57.6216Z" fill="white"/>
<path d="M98.8622 57.6216H95.6829V60.0216H98.8622V57.6216Z" fill="white"/>
<path d="M95.7478 72.2811V73.1244L95.8776 72.2811H95.7478Z" fill="#A9E5FF"/>
<path d="M93.2822 93.6217H93.3471L93.2822 91.546V93.6217Z" fill="#A9E5FF"/>
<path d="M104.377 102.768L98.927 94.1406V66.3784H99.7055C100.614 66.3784 101.328 65.6648 101.328 64.7568V61.5784C101.328 60.9946 101.003 60.4757 100.549 60.2162V56.7784C100.549 56.3243 100.16 56 99.7704 56H61.2945C60.8403 56 60.5159 56.3892 60.5159 56.7784V60.2162C59.9968 60.4757 59.6724 61.0595 59.6724 61.5784V64.7568C59.6724 65.6648 60.3861 66.3784 61.2945 66.3784H62.0731V94.1406L56.6229 102.768C56.4931 103.027 56.4282 103.351 56.6229 103.611C56.7526 103.87 57.0122 104 57.2717 104H103.663C103.988 104 104.247 103.87 104.377 103.611C104.572 103.351 104.507 103.027 104.377 102.768ZM58.764 102.378L63.3707 95.1784H97.6941L102.301 102.378H58.764ZM97.24 93.6216H93.3469H93.2821V91.546V77.6H94.1255C95.0339 77.6 95.7476 76.8865 95.7476 75.9784V73.5784V73.1244V72.281V69.6216C95.7476 68.7135 95.0339 68 94.1255 68H82.9007C81.9923 68 81.2786 68.7135 81.2786 69.6216V76.0432C81.2786 76.9514 81.9923 77.6648 82.9007 77.6648H83.6793V93.6216H77.2558V77.6H78.0345C78.9428 77.6 79.6565 76.8865 79.6565 75.9784V69.6216C79.6565 68.7135 78.9428 68 78.0345 68H66.8745C65.9661 68 65.2524 68.7135 65.2524 69.6216V76.0432C65.2524 76.9514 65.9661 77.6648 66.8745 77.6648H67.6531V93.6216H63.6303V66.3784H97.24V93.6216ZM92.5683 74.4216C92.1142 74.4216 91.7898 74.8108 91.7898 75.2V93.6216H85.3663V75.2C85.3014 74.746 84.9121 74.4216 84.5228 74.4216C84.0686 74.4216 83.7442 74.8108 83.7442 75.2V75.9784H82.9655V72.8H94.1255V75.9784H93.3469V75.2C93.3469 74.746 92.9577 74.4216 92.5683 74.4216ZM82.9007 71.2432V69.6216H94.1255V71.2432H82.9007ZM76.4772 74.4216C76.023 74.4216 75.6986 74.8108 75.6986 75.2V93.6216H69.2752V75.2C69.2752 74.746 68.8858 74.4216 68.4965 74.4216C68.0423 74.4216 67.7179 74.8108 67.7179 75.2V75.9784H66.8745V72.8H78.0993V75.9784H77.3207V75.2C77.3207 74.746 76.9314 74.4216 76.4772 74.4216ZM66.8745 71.2432V69.6216H78.0993V71.2432H66.8745ZM98.862 57.6216V60.0216H95.6828V57.6216H98.862ZM94.1255 57.6216V60.0216H90.8814V57.6216H94.1255ZM89.2593 57.6216V60.0216H86.08V57.6216H89.2593ZM84.4579 57.6216V60.0216H81.2786V57.6216H84.4579ZM79.6565 57.6216V60.0216H76.4772V57.6216H79.6565ZM74.8551 57.6216V60.0216H71.6759V57.6216H74.8551ZM70.1186 57.6216V60.0216H66.8745V57.6216H70.1186ZM65.2524 57.6216V60.0216H62.0731V57.6216H65.2524ZM61.2945 61.5784H99.7055V64.7568H61.2945V61.5784Z" fill="#005DBA"/>
<path d="M71.6758 80C71.2216 80 70.8972 80.3892 70.8972 80.7784V82.4C70.8972 82.8541 71.2865 83.1784 71.6758 83.1784C72.0651 83.1784 72.4544 82.7892 72.4544 82.4V80.7784C72.5193 80.3892 72.13 80 71.6758 80Z" fill="#005DBA"/>
<path d="M73.2979 84.8C72.8437 84.8 72.5193 85.1892 72.5193 85.5784V87.2C72.5193 87.6541 72.9086 87.9784 73.2979 87.9784C73.7521 87.9784 74.0765 87.5892 74.0765 87.2V85.5784C74.0765 85.1892 73.7521 84.8 73.2979 84.8Z" fill="#005DBA"/>
<path d="M71.6758 88.8215C71.2216 88.8215 70.8972 89.2107 70.8972 89.5999V91.9999C70.8972 92.454 71.2865 92.7783 71.6758 92.7783C72.0651 92.7783 72.4544 92.3891 72.4544 91.9999V89.5999C72.5193 89.1459 72.13 88.8215 71.6758 88.8215Z" fill="#005DBA"/>
<path d="M74.0765 75.9784C73.6223 75.9784 73.2979 76.3676 73.2979 76.7568V77.5352C73.2979 77.9892 73.6872 78.3135 74.0765 78.3135C74.5306 78.3135 74.8551 77.9243 74.8551 77.5352V76.7568C74.9199 76.3676 74.5306 75.9784 74.0765 75.9784Z" fill="#005DBA"/>
<path d="M87.7019 80C87.2478 80 86.9233 80.3892 86.9233 80.7784V82.4C86.9233 82.8541 87.2478 83.1784 87.7019 83.1784C88.1561 83.1784 88.4805 82.7892 88.4805 82.4V80.7784C88.4805 80.3243 88.0912 80 87.7019 80Z" fill="#005DBA"/>
<path d="M89.324 84.8C88.9347 84.8 88.5454 85.1892 88.5454 85.5784V87.2C88.4805 87.6541 88.8698 87.9784 89.324 87.9784C89.7782 87.9784 90.1026 87.5892 90.1026 87.2V85.5784C90.1026 85.1244 89.7133 84.8 89.324 84.8Z" fill="#005DBA"/>
<path d="M87.7019 88.8215C87.2478 88.8215 86.9233 89.2107 86.9233 89.5999V91.9999C86.9233 92.454 87.2478 92.7783 87.7019 92.7783C88.1561 92.7783 88.4805 92.3891 88.4805 91.9999V89.5999C88.4805 89.1459 88.0912 88.8215 87.7019 88.8215Z" fill="#005DBA"/>
<path d="M90.1026 76.0433C89.7133 76.0433 89.324 76.4325 89.324 76.8217V77.6001C89.324 78.0541 89.6484 78.3785 90.1026 78.3785C90.5568 78.3785 90.8812 77.9893 90.8812 77.6001V76.8217C90.8812 76.3677 90.4919 76.0433 90.1026 76.0433Z" fill="#005DBA"/>
<path d="M74.3362 96.6702C74.3362 96.6702 73.882 97.0594 72.8439 96.5405C71.1569 95.6973 69.989 96.2162 69.5348 96.6702C69.2104 96.9946 69.2104 97.4486 69.5348 97.7729C69.8592 98.0973 70.3134 98.0973 70.6378 97.8378C70.6378 97.8378 71.092 97.4486 72.1302 97.9675C72.6492 98.227 73.2332 98.4216 73.8171 98.4216C74.4011 98.4216 74.985 98.227 75.4392 97.8378C75.7636 97.5135 75.7636 97.0594 75.4392 96.7351C75.1797 96.4108 74.6606 96.4108 74.3362 96.6702Z" fill="#005DBA"/>
<path d="M82.3819 99.0703C82.3819 99.0703 81.9277 99.4595 80.8895 98.9405C79.2026 98.0973 78.0347 98.6162 77.5805 99.0703C77.2561 99.3946 77.2561 99.8486 77.5805 100.173C77.9049 100.497 78.3591 100.497 78.6835 100.238C78.6835 100.238 79.1377 99.8486 80.1758 100.368C80.6949 100.627 81.2788 100.822 81.8628 100.822C82.4467 100.822 83.0307 100.627 83.4849 100.238C83.8093 99.9135 83.8093 99.4595 83.4849 99.1351C83.1605 98.8108 82.7063 98.8108 82.3819 99.0703Z" fill="#005DBA"/>
<path d="M67.1341 99.0703C67.1341 99.0703 66.6799 99.4595 65.6417 98.9405C63.9548 98.0973 62.7869 98.6162 62.3327 99.0703C62.0083 99.3946 62.0083 99.8486 62.3327 100.173C62.6571 100.497 63.1113 100.497 63.4357 100.238C63.4357 100.238 63.8899 99.8486 64.928 100.368C65.4471 100.627 66.031 100.822 66.615 100.822C67.1989 100.822 67.7829 100.627 68.2371 100.238C68.5615 99.9135 68.5615 99.4595 68.2371 99.1351C67.9775 98.8108 67.4585 98.8108 67.1341 99.0703Z" fill="#005DBA"/>
<path d="M89.5838 96.6702C89.5838 96.6702 89.1296 97.0594 88.0914 96.5405C86.4045 95.6973 85.2366 96.2162 84.7824 96.6702C84.458 96.9946 84.458 97.4486 84.7824 97.7729C85.1068 98.0973 85.561 98.0973 85.8854 97.8378C85.8854 97.8378 86.3396 97.4486 87.3777 97.9675C87.8968 98.227 88.4807 98.4216 89.0647 98.4216C89.6486 98.4216 90.2326 98.227 90.6868 97.8378C91.0112 97.5135 91.0112 97.0594 90.6868 96.7351C90.3624 96.4108 89.9082 96.4108 89.5838 96.6702Z" fill="#005DBA"/>
<path d="M96.0719 98.9405C94.3849 98.0973 93.217 98.6162 92.7628 99.0703C92.4384 99.3946 92.4384 99.8486 92.7628 100.173C93.0873 100.497 93.5414 100.497 93.8659 100.238C93.8659 100.238 94.32 99.8486 95.3582 100.368C95.8773 100.627 96.4612 100.822 97.0452 100.822C97.6291 100.822 98.2131 100.627 98.6673 100.238C98.9917 99.9135 98.9917 99.4595 98.6673 99.1351C98.3428 98.8108 97.8886 98.8108 97.5642 99.0703C97.5642 99.0703 97.11 99.4595 96.0719 98.9405Z" fill="#005DBA"/>
</svg>
