<svg width="160" height="160" viewBox="0 0 160 160" fill="none" xmlns="http://www.w3.org/2000/svg">
<path d="M2.82843 80L80 2.82843L157.172 80L80 157.172L2.82843 80Z" fill="white" stroke="#377ED9" stroke-width="4"/>
<g clip-path="url(#clip0_502_2086)">
<path d="M86.2357 85.5232C86.1038 85.4574 86.0379 85.3917 85.972 85.3259C85.6423 85.0629 85.6423 84.5369 85.972 84.2081C85.7742 84.4054 85.7083 84.6026 85.7083 84.7999C85.7083 85.1944 85.906 85.4574 86.2357 85.5232Z" fill="white"/>
<path d="M68.2371 94.3343H95.927C96.3226 94.3343 96.7181 94.6631 96.7181 95.1233V96.7671C96.7181 96.9644 96.7181 97.1617 96.7181 97.359C96.9818 99.9891 99.0915 102.093 101.729 102.356H101.795C101.992 102.356 102.124 102.356 102.256 102.356H102.454C102.849 102.356 103.179 101.962 103.179 101.567V57.5781H68.2371V68.7562H67.7756V70.4H82.8073C83.0051 70.4 83.2688 70.5315 83.4007 70.6631L86.6311 73.885C86.9608 74.2137 86.9608 74.674 86.6311 75.0028L83.4007 78.2247C83.2028 78.3562 83.0051 78.4219 82.8073 78.4219H67.8416V80H68.3031V94.3343H68.2371ZM77.2034 60.8H93.4877V62.3781H77.2034V60.8ZM74.764 65.6V64.022H95.927V65.6H74.764ZM98.5641 65.074C98.7619 64.8768 98.9597 64.811 99.1575 64.811C99.5531 64.811 99.9486 65.1398 99.9486 65.6V89.6C99.9486 90.0603 99.619 90.3891 99.1575 90.3891H74.764C74.5662 90.3891 74.3025 90.3233 74.1707 90.1918C73.841 89.9288 73.841 89.4028 74.1707 89.074L98.5641 65.074ZM69.8853 80.7891H74.764V82.3671H69.8853V80.7891ZM69.8853 84.011H73.1158V85.5891H69.8853V84.011Z" fill="white"/>
<path d="M66.7209 102.356L97.9049 102.422C97.7071 102.29 97.5753 102.159 97.3775 101.961C97.1797 101.764 96.9819 101.567 96.7841 101.304C96.5864 101.107 96.4545 100.909 96.3226 100.712L96.2567 100.581C96.1249 100.383 96.0589 100.186 95.927 99.9888L95.8611 99.8573C95.7293 99.6601 95.6634 99.4628 95.5974 99.2655L95.5315 99.134C95.4655 98.9368 95.3997 98.7395 95.3337 98.5422C95.2678 98.4765 95.2678 98.4107 95.2678 98.345C95.2018 98.1477 95.1359 97.9505 95.1359 97.7532V97.5559C95.07 97.2929 95.07 97.0299 95.07 96.7669V95.9779V95.9121H61.051V96.7012C61.051 99.8573 63.6222 102.356 66.7209 102.356Z" fill="#A9E5FF"/>
<path d="M98.3003 87.167H96.6521V88.7451H98.3003V87.167Z" fill="#A9E5FF"/>
<path d="M78.5218 87.167H80.17V87.2328V88.7451H81.8182V87.167H83.4664V88.7451H85.1147V87.167H86.7629V88.7451H88.411V87.167H90.0592V88.7451H91.7074V87.167H93.3556V88.7451H95.0038V87.167H96.6521V85.589H96.9158H98.3003V83.8794H96.6521V82.3013H98.3003V80.7232H96.6521V79.1451H98.3003V77.567H96.6521V75.989H98.3003V74.4109H96.9158H96.6521V72.7013H98.3003V71.1232H96.6521V69.5451H98.3003V67.5068L76.4121 88.7451H78.5218V87.167ZM85.9717 84.2082L93.6853 76.6465C93.8831 76.4493 94.0809 76.3835 94.2787 76.3835C94.7402 76.3835 95.0698 76.7122 95.0698 77.1726V84.7999C95.0698 85.2602 94.7402 85.589 94.2787 85.589H86.4991C86.4332 85.589 86.3014 85.589 86.2354 85.5232C85.9058 85.3917 85.708 85.1287 85.708 84.7999C85.708 84.6026 85.7739 84.4054 85.9717 84.2082Z" fill="#A9E5FF"/>
<path d="M93.4217 79.1453L88.4771 84.011H93.4217V79.1453Z" fill="white"/>
<path d="M57.6887 74.4108C57.6887 75.6602 58.6776 76.778 59.9962 76.778C60.0621 76.778 60.1281 76.778 60.1281 76.778H60.9192V71.978H60.1281C58.8095 71.978 57.6887 73.0958 57.6887 74.4108Z" fill="#A9E5FF"/>
<path d="M62.5674 71.978V76.778H81.0273L80.6318 75.1999L64.1497 75.1341V75.0684V73.6218V73.556H80.6318L81.0273 71.978H62.5674Z" fill="#A9E5FF"/>
<path d="M82.6754 72.1096L82.082 74.4109L82.6754 76.7123L84.9829 74.4109L82.6754 72.1096Z" fill="#A9E5FF"/>
<path d="M104.036 55.9999H67.4461C66.9846 55.9999 66.6549 56.3287 66.589 56.789V68.7561H67.7757H68.2372V57.578H103.179V101.567C103.179 101.962 102.85 102.356 102.454 102.356H102.256C102.124 102.356 101.992 102.356 101.795 102.356H101.729C99.0916 102.093 96.9819 99.9889 96.7182 97.3589C96.7182 97.1616 96.7182 96.9643 96.7182 96.767V95.1232C96.7182 94.6629 96.3226 94.3342 95.9271 94.3342H68.2372V79.9999H67.7757H66.589V94.3999H60.1281C59.6666 94.3999 59.3369 94.7287 59.3369 95.1889V96.767C59.3369 100.778 62.5674 104 66.589 104C66.589 104 66.589 104 66.6549 104H102.52C103.839 104 104.893 102.882 104.893 101.567V56.789C104.827 56.3287 104.498 55.9999 104.036 55.9999ZM61.051 95.9123H95.07V95.978V96.767C95.07 97.0301 95.07 97.2931 95.1359 97.5561V97.7533C95.1359 97.9506 95.2019 98.1479 95.2678 98.3451C95.2678 98.4109 95.2678 98.4766 95.3337 98.5424C95.3996 98.7397 95.4656 98.937 95.5315 99.1342L95.5975 99.2657C95.6634 99.4629 95.7293 99.6602 95.8611 99.8575L95.9271 99.9889C96.059 100.186 96.1249 100.383 96.2567 100.581L96.3226 100.712C96.4545 100.91 96.5863 101.107 96.7842 101.304C96.9819 101.567 97.1797 101.764 97.3775 101.962C97.5753 102.159 97.7072 102.29 97.9049 102.422L66.7209 102.356C63.6223 102.356 61.051 99.8575 61.051 96.7013V95.9123Z" fill="#005DBA"/>
<path d="M83.4667 78.2244L86.6972 75.0025C87.0268 74.6738 87.0268 74.2135 86.6972 73.8847L83.4667 70.6628C83.3348 70.5313 83.0711 70.3998 82.8733 70.3998H67.8417H60.1281C57.8865 70.3998 56.1064 72.1751 56.1064 74.4107C56.1064 76.6464 57.8865 78.4217 60.1281 78.4217H67.8417H82.8733C83.0711 78.4217 83.2689 78.356 83.4667 78.2244ZM60.9192 76.7779H60.1281C60.0621 76.7779 59.9962 76.7779 59.9962 76.7779C58.7436 76.7779 57.6887 75.6601 57.6887 74.4107C57.6887 73.0957 58.8095 71.9779 60.1281 71.9779H60.9192V76.7779ZM80.6318 73.5559H64.1497V73.6217V75.0683V75.134L80.6318 75.1998L81.0273 76.7779H62.5674V71.9779H81.0273L80.6318 73.5559ZM82.0822 74.4107L82.6755 72.1094L84.983 74.4107L82.6755 76.7121L82.0822 74.4107Z" fill="#005DBA"/>
<path d="M74.1708 90.1917C74.3027 90.3232 74.5664 90.389 74.7642 90.389H99.1576C99.6191 90.389 99.9487 90.0602 99.9487 89.5999V65.6C99.9487 65.1397 99.5531 64.8109 99.1576 64.8109C98.9598 64.8109 98.762 64.8767 98.5643 65.0739L74.1708 89.0739C73.8412 89.4027 73.8412 89.9287 74.1708 90.1917ZM98.3006 67.5068V69.5452H96.6524V71.1232H98.3006V72.7013H96.6524V74.4109H96.9161H98.3006V75.989H96.6524V77.5671H98.3006V79.1451H96.6524V80.7232H98.3006V82.3013H96.6524V83.8794H98.3006V85.589H96.9161H96.6524V87.1671H98.3006V88.7451H96.6524V87.1671H95.0042V88.7451H93.356V87.1671H91.7077V88.7451H90.0595V87.1671H88.4113V88.7451H86.7631V87.1671H85.1149V88.7451H83.4667V87.1671H81.8185V88.7451H80.1703V87.2328V87.1671H78.5221V88.7451H76.4124L98.3006 67.5068Z" fill="#005DBA"/>
<path d="M85.9721 85.326C86.038 85.4575 86.1699 85.5232 86.2358 85.5232C86.3017 85.5232 86.4336 85.5889 86.4995 85.5889H94.279C94.7405 85.5889 95.0701 85.2602 95.0701 84.7999V77.1725C95.0701 76.7123 94.7405 76.3835 94.279 76.3835C94.0813 76.3835 93.8834 76.4492 93.6857 76.6465L85.9721 84.2081C85.6424 84.5369 85.6424 85.0629 85.9721 85.326ZM93.422 79.1451V84.0109H88.4774L93.422 79.1451Z" fill="#005DBA"/>
<path d="M93.4879 60.7998H77.2036V62.3779H93.4879V60.7998Z" fill="#005DBA"/>
<path d="M95.9271 64.0219H74.7642V65.6H95.9271V64.0219Z" fill="#005DBA"/>
<path d="M74.7639 80.7889H69.8853V82.367H74.7639V80.7889Z" fill="#005DBA"/>
<path d="M73.1157 84.011H69.8853V85.5891H73.1157V84.011Z" fill="#005DBA"/>
</g>
<defs>
<clipPath id="clip0_502_2086">
<rect width="61" height="48" fill="white" transform="translate(50 55.9999)"/>
</clipPath>
</defs>
</svg>
