<svg width="160" height="160" viewBox="0 0 160 160" fill="none" xmlns="http://www.w3.org/2000/svg">
<path d="M2.82843 80L80 2.82843L157.172 80L80 157.172L2.82843 80Z" fill="white" stroke="#377ED9" stroke-width="4"/>
<g clip-path="url(#clip0_502_2107)">
<path d="M77.5534 98.6594H75.5888V99.6452H58.8582V101.607H75.5796V102.593H78.3004C77.83 102.068 77.5442 101.386 77.5442 100.631V98.6594H77.5534Z" fill="white"/>
<path d="M102.151 101.607V99.6452H85.4205V98.6594H83.456V100.622C83.456 101.377 83.1701 102.068 82.6997 102.584H85.4205V101.598H102.151V101.607Z" fill="white"/>
<path d="M83.4558 98.6594H85.4203V97.6736H102.142V64.2693H99.1904V90.8011C99.1904 92.4317 97.8715 93.7491 96.239 93.7491H85.4203V92.7634H83.4558V98.6594Z" fill="#A9E5FF"/>
<path d="M75.5888 93.7491H64.7609C63.1284 93.7491 61.8095 92.4317 61.8095 90.8012V64.2693H58.8582V97.6829H75.5796V98.6686H77.5534V92.7726H75.5888V93.7491Z" fill="#A9E5FF"/>
<path d="M63.783 60.3357V90.8012C63.783 91.3447 64.2257 91.787 64.7698 91.787H75.5885V92.7727H77.5531V90.8104C77.5623 89.5668 78.3462 88.4613 79.5176 88.0467V83.8827C72.6925 83.3852 67.2601 77.9591 66.762 71.1326C66.4208 66.4159 68.5052 62.0861 71.9638 59.3592H68.6989V60.3449H63.783V60.3357ZM66.7344 82.943H68.6989V84.9053H66.7344V82.943ZM75.5885 86.8675V88.8298H66.7344V86.8675H75.5885Z" fill="white"/>
<path d="M94.247 69.1704C94.7912 76.7523 89.0821 83.3299 81.4915 83.8735V88.0375C82.6628 88.4521 83.456 89.5576 83.456 90.8104V92.7727H85.4205V91.787H96.2392C96.7834 91.787 97.2261 91.3447 97.2261 90.8012V60.3357H92.3102V59.3592H89.0452C91.9689 61.6715 93.9519 65.1538 94.247 69.1704ZM94.2746 88.839H85.4205V86.8767H94.2746V88.839ZM94.2746 84.9053H92.3102V82.943H94.2746V84.9053Z" fill="white"/>
<path d="M88.3721 70.1653C88.3721 65.8263 84.8488 62.3071 80.5048 62.3071C76.1607 62.3071 72.6375 65.8263 72.6375 70.1653C72.6467 74.5044 76.1607 78.0235 80.5048 78.0235C84.8488 78.0235 88.3721 74.5044 88.3721 70.1653Z" fill="#A9E5FF"/>
<path d="M92.3103 70.1653C92.3103 63.6522 87.0255 58.3735 80.5048 58.3735C73.9841 58.3735 68.6992 63.6522 68.6992 70.1653C68.7084 76.6785 73.9841 81.9481 80.5048 81.9573C87.0255 81.9573 92.3103 76.6785 92.3103 70.1653ZM70.6637 70.1653C70.6637 64.7393 75.0724 60.3357 80.5048 60.3357C85.9372 60.3357 90.3458 64.7393 90.3458 70.1653C90.3366 75.5915 85.9372 79.9858 80.5048 79.995C75.0724 79.995 70.6637 75.5915 70.6637 70.1653Z" fill="white"/>
<path d="M80.5045 89.8154C79.9603 89.8154 79.5176 90.2576 79.5176 90.8012V100.631C79.5176 101.174 79.9603 101.617 80.5045 101.617C81.0486 101.617 81.4913 101.174 81.4913 100.631V90.8012C81.4913 90.5432 81.3899 90.2945 81.2054 90.1194C81.0209 89.926 80.7719 89.8154 80.5045 89.8154Z" fill="white"/>
<path d="M102.151 62.3072H99.1997V59.3592C99.1997 58.8157 98.757 58.3735 98.2129 58.3735H92.3101V59.3592V60.3449H97.226V90.8105C97.226 91.354 96.7833 91.7962 96.2391 91.7962H85.4204V92.7819V93.7677H96.2391C97.8716 93.7677 99.1905 92.4502 99.1905 90.8197V64.2879H102.142V97.7014H85.4204V98.6871V99.6728H102.142V101.635H85.4204V102.621V103.606H102.142C103.23 103.606 104.106 102.722 104.106 101.644V64.2694C104.116 63.1824 103.23 62.3072 102.151 62.3072Z" fill="#005DBA"/>
<path d="M58.8581 101.607V99.6451H75.5796V98.6594V97.6737H58.8581V64.2694H61.8095V90.8013C61.8095 92.4318 63.1284 93.7492 64.7609 93.7492H75.5796V92.7635V91.7778H64.7609C64.2167 91.7778 63.774 91.3355 63.774 90.792V60.3357H68.6991V59.3592V58.3735H62.7963C62.2522 58.3735 61.8095 58.8157 61.8095 59.3592V62.3072H58.8581C57.779 62.3072 56.8936 63.1824 56.8936 64.2694V101.607C56.8936 102.694 57.779 103.57 58.8581 103.57H75.5796V102.584V101.598H58.8581V101.607Z" fill="#005DBA"/>
<path d="M75.5888 88.839V86.8675H66.7346V88.839H75.5888Z" fill="#005DBA"/>
<path d="M94.2746 86.8675H85.4204V88.8297H94.2746V86.8675Z" fill="#005DBA"/>
<path d="M68.6991 82.9431H66.7346V84.9053H68.6991V82.9431Z" fill="#005DBA"/>
<path d="M94.2748 82.9431H92.3103V84.9053H94.2748V82.9431Z" fill="#005DBA"/>
<path d="M83.4562 98.6594V92.7634V90.8012C83.4562 89.5575 82.663 88.4428 81.4916 88.0283V83.8642C89.0822 83.3207 94.7913 76.7338 94.2472 69.1612C93.9613 65.1446 91.9783 61.6623 89.0453 59.35C86.4445 57.3048 83.0872 56.1717 79.5179 56.4296C76.6495 56.6323 74.0578 57.701 71.9642 59.3592C68.5147 62.0861 66.4303 66.4159 66.7623 71.1327C67.2512 77.9591 72.6836 83.3852 79.5179 83.8734V88.0375C78.3465 88.452 77.5534 89.5575 77.5534 90.8012V92.7634V98.6594V100.622C77.5534 101.377 77.8393 102.068 78.3096 102.584C78.8538 103.183 79.6378 103.57 80.5047 103.57C81.3809 103.57 82.1649 103.192 82.6998 102.584C83.1702 102.059 83.4562 101.377 83.4562 100.622V98.6594ZM68.6992 70.1654C68.6992 63.6522 73.984 58.3735 80.5047 58.3735C87.0255 58.3735 92.3104 63.6522 92.3104 70.1654C92.3104 76.6786 87.0255 81.9573 80.5047 81.9573C73.984 81.9481 68.7084 76.6786 68.6992 70.1654ZM81.4916 100.631C81.4916 101.174 81.0489 101.617 80.5047 101.617C79.9606 101.617 79.5179 101.174 79.5179 100.631V90.8012C79.5179 90.2577 79.9606 89.8155 80.5047 89.8155C80.7723 89.8155 81.0212 89.926 81.2057 90.1195C81.3902 90.2945 81.4916 90.5432 81.4916 90.8012V100.631Z" fill="#005DBA"/>
<path d="M90.3457 70.1654C90.3457 64.7392 85.937 60.3357 80.5046 60.3357C75.0722 60.3357 70.6636 64.7392 70.6636 70.1654C70.6636 75.5915 75.0722 79.995 80.5046 79.995C85.937 79.9858 90.3364 75.5915 90.3457 70.1654ZM72.6373 70.1654C72.6373 65.8263 76.1605 62.3072 80.5046 62.3072C84.8487 62.3072 88.372 65.8263 88.372 70.1654C88.372 74.5044 84.8487 78.0235 80.5046 78.0235C76.1605 78.0235 72.6373 74.5044 72.6373 70.1654Z" fill="#005DBA"/>
</g>
<defs>
<clipPath id="clip0_502_2107">
<rect width="61" height="48" fill="white" transform="translate(50 55.9999)"/>
</clipPath>
</defs>
</svg>
